<svg xmlns="http://www.w3.org/2000/svg" width="100" height="60.001" viewBox="0 0 100 60.001">
  <g id="Group_50004" data-name="Group 50004" transform="translate(-410 -894)">
    <rect id="Rectangle_3904" data-name="Rectangle 3904" width="100" height="60" transform="translate(410 894)" fill="none"/>
    <g id="noun-presentation-7494907" transform="translate(419.597 881.911)">
      <path id="Path_26509" data-name="Path 26509" d="M27.984,51.385V34.85h.924v7.787a1,1,0,0,0,1,1H46.215l-4.736,8.2a1,1,0,1,0,1.731,1l5.314-9.206H54.75l5.314,9.206a1,1,0,1,0,1.731-1l-4.736-8.2H73.622a1,1,0,0,0,1-1V13.091a1,1,0,0,0-1-1H29.91a1,1,0,0,0-1,1V28.379H8.349A3.091,3.091,0,0,0,5.4,31.588V45.724a1,1,0,0,0,1,1h3.4v4.661a1,1,0,0,0,1,1H26.989a1,1,0,0,0,1-1Zm2.924-37.3H72.624V41.638H30.908V34.849h7.626a3.237,3.237,0,0,0,0-6.473H30.908ZM25.984,33.852V50.387H11.8V39.555a1,1,0,0,0-2,0v5.172H7.4V31.589a1.117,1.117,0,0,1,.946-1.209H38.534a1.237,1.237,0,0,1,0,2.473H26.982a1,1,0,0,0-1,1Zm-7.091-6.411a7.481,7.481,0,1,0-7.481-7.481A7.491,7.491,0,0,0,18.893,27.441Zm0-12.961a5.481,5.481,0,1,1-5.481,5.481A5.485,5.485,0,0,1,18.893,14.479ZM33.347,63.06a4.915,4.915,0,1,0-7.629,0,8.855,8.855,0,0,0-5.069,8.028,1,1,0,0,0,2,0,6.857,6.857,0,0,1,4.943-6.606,4.9,4.9,0,0,0,1.941.4,4.848,4.848,0,0,0,1.941-.4,6.857,6.857,0,0,1,4.943,6.606,1,1,0,1,0,2,0,8.851,8.851,0,0,0-5.069-8.028Zm-3.818-.179a2.915,2.915,0,1,1,2.915-2.915A2.918,2.918,0,0,1,29.53,62.881Zm22.6.179a4.915,4.915,0,1,0-7.629,0,8.855,8.855,0,0,0-5.069,8.028,1,1,0,0,0,2,0,6.857,6.857,0,0,1,4.943-6.606,4.9,4.9,0,0,0,1.941.4,4.848,4.848,0,0,0,1.941-.4A6.857,6.857,0,0,1,55.2,71.089a1,1,0,0,0,2,0,8.851,8.851,0,0,0-5.069-8.028Zm-3.818-.179a2.915,2.915,0,1,1,2.915-2.915A2.918,2.918,0,0,1,48.315,62.881Zm22.6.179a4.915,4.915,0,1,0-7.629,0,8.855,8.855,0,0,0-5.069,8.028,1,1,0,0,0,2,0,6.857,6.857,0,0,1,4.943-6.606,4.9,4.9,0,0,0,1.941.4,4.848,4.848,0,0,0,1.941-.4,6.857,6.857,0,0,1,4.943,6.606,1,1,0,0,0,2,0,8.851,8.851,0,0,0-5.069-8.028ZM67.1,62.881a2.915,2.915,0,1,1,2.915-2.915A2.918,2.918,0,0,1,67.1,62.881ZM33.464,18.514a1,1,0,0,1,1-1h8.68a1,1,0,0,1,0,2h-8.68A1,1,0,0,1,33.464,18.514Zm9.681,5.2h-8.68a1,1,0,0,1,0-2h8.68a1,1,0,0,1,0,2Zm4.81,13.62H63.216a1,1,0,0,0,1-1l0-16.939a1,1,0,0,0-1-1H58.125a1,1,0,0,0-1,1v3.567H53.037a1,1,0,0,0-1,1v4.482H47.949a1,1,0,0,0-1,1v6.89a1,1,0,0,0,1,1ZM59.13,20.4h3.085v14.94H59.13l0-14.94Zm-5.088,4.569h3.085V35.336H54.042Zm-5.088,5.484h3.085v4.89H48.954Z"/>
    </g>
  </g>
</svg>
