<svg xmlns="http://www.w3.org/2000/svg" width="100" height="60" viewBox="0 0 100 60">
  <g id="Group_50006" data-name="Group 50006" transform="translate(-410 -894)">
    <rect id="Rectangle_3904" data-name="Rectangle 3904" width="100" height="60" transform="translate(410 894)" fill="none"/>
    <g id="noun-mentoring-4146705" transform="translate(424.771 888.764)">
      <path id="Path_26505" data-name="Path 26505" d="M19.437,46.662A9.9,9.9,0,0,0,8.268,51.31,10.01,10.01,0,0,0,9.847,63.357a9.431,9.431,0,0,1,2.629,4.867,25.4,25.4,0,0,1,.305,4.979H22.827V70.057L26.8,66.834V61.978l1.9-1.771-1.9-3.7v-.2A9.963,9.963,0,0,0,19.437,46.662Zm.444-1.655A11.686,11.686,0,0,1,28.508,56.3l2.3,4.274-2.3,2.145v4.926l-3.972,3.225v4.043H11.124v-.852a28.331,28.331,0,0,0-.321-5.484,7.5,7.5,0,0,0-2.169-4.007A11.688,11.688,0,0,1,19.88,45.007Z" transform="translate(0 -9.675)" fill-rule="evenodd"/>
      <path id="Path_26506" data-name="Path 26506" d="M62.23,46.662A9.9,9.9,0,0,1,73.4,51.31a10.006,10.006,0,0,1-1.582,12.048,9.417,9.417,0,0,0-2.628,4.867,25.572,25.572,0,0,0-.306,4.979H58.836V70.057l-3.967-3.222V61.978l-1.9-1.771,1.9-3.7v-.2A9.959,9.959,0,0,1,62.23,46.662Zm-.448-1.655A11.688,11.688,0,0,0,53.158,56.3l-2.3,4.274,2.3,2.145v4.926l3.969,3.225v4.043H70.541v-.852a28.258,28.258,0,0,1,.323-5.484,7.46,7.46,0,0,1,2.165-4.007A11.687,11.687,0,0,0,61.782,45.007Z" transform="translate(-11.213 -9.675)" fill-rule="evenodd"/>
      <path id="Path_26507" data-name="Path 26507" d="M37.634,39.43h7.7v2.5l-1.866,1.61-.072.241a2.02,2.02,0,0,1-1.843,1.379,1.852,1.852,0,0,1-1.995-1.417l-.078-.22-1.846-1.591v-2.5ZM41.48,19.686a9.2,9.2,0,0,1,8.509,5.72,9.326,9.326,0,0,1-2,10.112l-2.193,2.2H42.34V31.7a3.933,3.933,0,0,0,1.06-.4,3.794,3.794,0,0,0,1.933-3.288H43.617a2.059,2.059,0,0,1-1.057,1.8,2.2,2.2,0,0,1-2.156,0,2.063,2.063,0,0,1-1.061-1.8H37.635A3.789,3.789,0,0,0,39.563,31.3a4.008,4.008,0,0,0,1.064.4v6.022H37.171l-2.192-2.2a9.317,9.317,0,0,1-2-10.112A9.19,9.19,0,0,1,41.48,19.686Zm0-1.7A10.916,10.916,0,0,0,31.4,24.761a11.028,11.028,0,0,0,2.368,11.958L35.925,38.9V42.71l2.121,1.831a3.709,3.709,0,0,0,6.883-.008l2.113-1.823V38.9L49.2,36.719A10.986,10.986,0,0,0,41.48,17.981Z" transform="translate(-6.227 -3.132)" fill-rule="evenodd"/>
      <rect id="Rectangle_3900" data-name="Rectangle 3900" width="1.713" height="6.281" transform="translate(33.912 5.237)"/>
      <path id="Path_26508" data-name="Path 26508" d="M60.936,12.21l-4.443,4.443L57.7,17.864l4.443-4.44Z" transform="translate(-12.598 -1.714)"/>
      <rect id="Rectangle_3901" data-name="Rectangle 3901" width="1.714" height="6.281" transform="matrix(0.706, -0.708, 0.708, 0.706, 19.987, 11.712)"/>
      <rect id="Rectangle_3902" data-name="Rectangle 3902" width="6.278" height="1.709" transform="translate(14.727 24.423)"/>
      <rect id="Rectangle_3903" data-name="Rectangle 3903" width="6.277" height="1.709" transform="translate(48.534 24.423)"/>
    </g>
  </g>
</svg>
