<svg xmlns="http://www.w3.org/2000/svg" width="100" height="60" viewBox="0 0 100 60">
  <g id="Group_50002" data-name="Group 50002" transform="translate(-410 -894)">
    <rect id="Rectangle_3904" data-name="Rectangle 3904" width="100" height="60" transform="translate(410 894)" fill="none"/>
    <path id="online-learning_17317642" d="M62.46,53.91H59.59V21.84a3.963,3.963,0,0,0-3.96-3.96H37.68a8.613,8.613,0,1,0-11.1,0H7.85a3.963,3.963,0,0,0-3.96,3.96V53.91H1.54a.538.538,0,0,0-.54.54v1.96a4.908,4.908,0,0,0,4.9,4.9H58.1a4.908,4.908,0,0,0,4.9-4.9V54.45a.538.538,0,0,0-.54-.54ZM44.8,26.44l.77-.12a1.093,1.093,0,0,1,1.25,1.06v4.88c-.02,0-.03.02-.05.02A1.822,1.822,0,0,0,45.56,34a33.958,33.958,0,0,0,.11,4.19,1.87,1.87,0,0,0,1.14,1.11v4.87a1.066,1.066,0,0,1-.9,1.06L32.55,47.39V28.41C35.35,27.96,42.08,26.87,44.8,26.44ZM47.37,38.3a.722.722,0,0,1-.72-.74V34a.74.74,0,1,1,1.48,0v3.56a.741.741,0,0,1-.75.74ZM16.65,33.25a.724.724,0,0,1,.72.75v3.56a.74.74,0,1,1-1.48,0V34a.731.731,0,0,1,.75-.75Zm.55,6.05a1.842,1.842,0,0,0,1.26-1.74V34a1.874,1.874,0,0,0-1.26-1.75V27.37a1.1,1.1,0,0,1,.38-.82c.42-.42,1.14-.19,1.64-.12l2.23.36,10.02,1.62V47.39L18.11,45.23a1.074,1.074,0,0,1-.9-1.06V39.3ZM40.16,26.08l-8.15,1.31c-1.72-.28-9.91-1.6-11.46-1.85a18.416,18.416,0,0,1,22.92,0l-3.31.53Zm-8.15-5.63a19.9,19.9,0,0,0-2.9.23l.22-1.25a8.574,8.574,0,0,0,5.37.09l.21,1.16a19.9,19.9,0,0,0-2.9-.23ZM24.62,11.3a7.528,7.528,0,1,0,0-.01ZM4.99,21.84a2.876,2.876,0,0,1,2.87-2.87c.06.03,20.4-.06,20.44.03l-.33,1.89a19.329,19.329,0,0,0-8.82,4.43l-.53-.08a2.177,2.177,0,0,0-2.51,2.14v4.87A1.8,1.8,0,0,0,14.81,34v3.56a1.8,1.8,0,0,0,1.3,1.73v4.87a2.135,2.135,0,0,0,1.82,2.13l13.99,2.27a.485.485,0,0,0,.17,0l13.99-2.27a2.159,2.159,0,0,0,1.82-2.13V39.29a1.827,1.827,0,0,0,1.3-1.74V33.99a1.809,1.809,0,0,0-1.3-1.75V27.36a2.2,2.2,0,0,0-.76-1.65,2.427,2.427,0,0,0-2.27-.4,19.329,19.329,0,0,0-8.82-4.43l-.31-1.77c.11-.05.21-.1.31-.15H55.64a2.876,2.876,0,0,1,2.87,2.87V53.9H4.99ZM61.91,56.41a3.815,3.815,0,0,1-3.81,3.81H5.9a3.815,3.815,0,0,1-3.81-3.81V54.99H61.91Z" transform="translate(428 892.32)"/>
  </g>
</svg>
