<svg xmlns="http://www.w3.org/2000/svg" width="40" height="40" viewBox="0 0 40 40">
  <g id="Group_50096" data-name="Group 50096" transform="translate(-540 -2561)">
    <rect id="Rectangle_3948" data-name="Rectangle 3948" width="40" height="40" transform="translate(540 2561)" fill="none"/>
    <g id="noun-leader" transform="translate(539.5 2556.704)">
      <g id="Group_50102" data-name="Group 50102" transform="translate(2.5 10.296)">
        <path id="Path_26524" data-name="Path 26524" d="M11.261,23.809a4.111,4.111,0,0,0,1.767-3.346,4.079,4.079,0,0,0-8.158,0,4.017,4.017,0,0,0,1.767,3.346A6.474,6.474,0,0,0,2.5,29.823v1.692a.6.6,0,0,0,.6.6h8.009a.6.6,0,1,0,0-1.2H3.7V29.786a5.279,5.279,0,0,1,5.264-5.264,5.042,5.042,0,0,1,3.008.978.594.594,0,0,0,.677-.977,6.853,6.853,0,0,0-1.391-.715ZM6.072,20.462a2.895,2.895,0,1,1,2.895,2.895,2.9,2.9,0,0,1-2.895-2.895Z" transform="translate(-2.5 -14.107)" fill="#1e2c53"/>
        <path id="Path_26525" data-name="Path 26525" d="M78.147,25.172a6.864,6.864,0,0,0-2.256-1.466,4.079,4.079,0,1,0-4.625,0,6.1,6.1,0,0,0-1.391.714.594.594,0,1,0,.677.977,5.218,5.218,0,0,1,3.008-.978,5.292,5.292,0,0,1,3.721,1.542,5.36,5.36,0,0,1,1.542,3.721V30.85H71.418a.6.6,0,1,0,0,1.2h8.008a.6.6,0,0,0,.6-.6v-1.73a6.468,6.468,0,0,0-1.88-4.55ZM70.7,20.4A2.895,2.895,0,1,1,73.6,23.292,2.9,2.9,0,0,1,70.7,20.4Z" transform="translate(-45.028 -14.043)" fill="#1e2c53"/>
        <path id="Path_26526" data-name="Path 26526" d="M40.25,18.794a4.625,4.625,0,1,0-4.964,0A7.329,7.329,0,0,0,30.4,25.711v1.955a.6.6,0,0,0,.6.6h3.271a.6.6,0,0,0,.6-.6.564.564,0,0,0-.6-.562H31.565V25.749a6.166,6.166,0,1,1,12.332,0V27.1H41.19a.6.6,0,0,0,0,1.2h3.346a.6.6,0,0,0,.6-.6V25.749a7.365,7.365,0,0,0-2.143-5.225,7.551,7.551,0,0,0-2.745-1.73Zm-5.9-3.871a3.422,3.422,0,1,1,3.422,3.42A3.435,3.435,0,0,1,34.346,14.922Z" transform="translate(-20.269 -10.296)" fill="#1e2c53"/>
        <path id="Path_26527" data-name="Path 26527" d="M44.335,57.116l-3.873-.564-1.73-3.5a1.022,1.022,0,0,0-1.767,0l-1.73,3.5-3.835.564a.939.939,0,0,0-.79.639.99.99,0,0,0,.226,1.015l2.782,2.707-.637,3.874A.98.98,0,0,0,34.41,66.4l3.459-1.8,3.459,1.8a1,1,0,0,0,.451.113,1.134,1.134,0,0,0,.6-.188.947.947,0,0,0,.376-.94l-.677-3.834,2.782-2.707a.938.938,0,0,0,.226-1.015.8.8,0,0,0-.752-.717Zm-3.309,3.76a.7.7,0,0,0-.188.526l.639,3.76-3.346-1.767a.736.736,0,0,0-.564,0l-3.384,1.767.639-3.76a.582.582,0,0,0-.188-.526l-2.745-2.67,3.76-.564A.6.6,0,0,0,36.1,57.3l1.692-3.422L39.484,57.3a.6.6,0,0,0,.451.338l3.76.564Z" transform="translate(-20.369 -37.525)" fill="#1e2c53"/>
      </g>
    </g>
  </g>
</svg>
