<svg xmlns="http://www.w3.org/2000/svg" width="100" height="60" viewBox="0 0 100 60">
  <g id="Group_50003" data-name="Group 50003" transform="translate(-410 -894)">
    <rect id="Rectangle_3904" data-name="Rectangle 3904" width="100" height="60" transform="translate(410 894)" fill="none"/>
    <g id="assessment_8929862" transform="translate(428.87 892.88)">
      <path id="Path_26490" data-name="Path 26490" d="M61.534,47.495l-7.321-7.321a.847.847,0,0,0-1.167,0l-.376.386-1.308-1.308A12.74,12.74,0,1,0,47.7,42.912l1.317,1.317-.376.376a.829.829,0,0,0,0,1.167l7.321,7.321A3.952,3.952,0,0,0,62.711,50.3a3.983,3.983,0,0,0-1.176-2.8ZM32.843,40.1a11.112,11.112,0,1,1,15.715,0,11.032,11.032,0,0,1-15.715,0Zm16.176,1.8c.235-.207.48-.4.706-.63a8.893,8.893,0,0,0,.63-.706l1.157,1.157-1.336,1.336ZM60.367,51.918a2.368,2.368,0,0,1-3.265,0L50.364,45.18l.376-.386,1.252-1.252,1.628-1.628,6.738,6.738a2.3,2.3,0,0,1,.678,1.628,2.222,2.222,0,0,1-.668,1.637Z" transform="translate(-1.581 -1.084)"/>
      <path id="Path_26491" data-name="Path 26491" d="M40.926,23.48a9,9,0,0,0-9,9,.828.828,0,1,0,1.656,0,7.357,7.357,0,0,1,7.349-7.349.823.823,0,1,0-.009-1.647Z" transform="translate(-1.817 -1.319)"/>
      <path id="Path_26492" data-name="Path 26492" d="M45.311,44.764a.829.829,0,0,0-.828.828v9.994A3.894,3.894,0,0,1,40.6,59.472H6.654a3.894,3.894,0,0,1-3.886-3.886V6.653A3.894,3.894,0,0,1,6.654,2.767h7.726V5.825H6.654a.834.834,0,0,0-.819.828V55.586a.829.829,0,0,0,.828.828H40.615a.829.829,0,0,0,.828-.828v-8.8a.828.828,0,0,0-1.656,0v7.98H7.482V7.481h6.9v.9a2.1,2.1,0,0,0,2.089,2.089H30.8a2.1,2.1,0,0,0,2.089-2.089v-.9h6.9v8.046a.828.828,0,0,0,1.656,0V6.653a.829.829,0,0,0-.828-.828H32.889V2.776h7.726A3.894,3.894,0,0,1,44.5,6.663V16.741a.828.828,0,0,0,1.656,0V6.653A5.542,5.542,0,0,0,40.624,1.12H6.654A5.54,5.54,0,0,0,1.13,6.653V55.586a5.542,5.542,0,0,0,5.533,5.533H40.615a5.542,5.542,0,0,0,5.533-5.533v-10a.842.842,0,0,0-.838-.819ZM31.242,8.385a.442.442,0,0,1-.442.442H16.469a.442.442,0,0,1-.442-.442V2.776H31.242Z"/>
      <path id="Path_26493" data-name="Path 26493" d="M20.161,14.168a.829.829,0,0,0-.828-.828H10.948a.829.829,0,0,0-.828.828v8.384a.829.829,0,0,0,.828.828h8.384a.829.829,0,0,0,.828-.828Zm-1.647,7.566H11.776V15h6.738Z" transform="translate(-0.53 -0.721)"/>
      <path id="Path_26494" data-name="Path 26494" d="M13.777,20.508a.819.819,0,0,0,.583.245.783.783,0,0,0,.583-.245l2.776-2.776a.825.825,0,1,0-1.167-1.167L14.36,18.758l-.348-.348a.825.825,0,1,0-1.167,1.167Z" transform="translate(-0.677 -0.897)"/>
      <path id="Path_26495" data-name="Path 26495" d="M38.124,16.628A.829.829,0,0,0,37.3,15.8H23.548a.828.828,0,1,0,0,1.656H37.3A.835.835,0,0,0,38.124,16.628Z" transform="translate(-1.273 -0.866)"/>
      <path id="Path_26496" data-name="Path 26496" d="M30.106,21.078a.829.829,0,0,0-.828-.828h-5.74a.823.823,0,1,0,.009,1.647h5.74a.819.819,0,0,0,.819-.819Z" transform="translate(-1.273 -1.128)"/>
      <path id="Path_26497" data-name="Path 26497" d="M20.161,30.088a.829.829,0,0,0-.828-.828H10.948a.829.829,0,0,0-.828.828v8.384a.829.829,0,0,0,.828.828h8.384a.829.829,0,0,0,.828-.828Zm-1.647,7.556H11.776V30.907h6.738Z" transform="translate(-0.53 -1.66)"/>
      <path id="Path_26498" data-name="Path 26498" d="M13.777,36.428a.843.843,0,0,0,.583.245.8.8,0,0,0,.583-.245l2.776-2.776a.825.825,0,0,0-1.167-1.167L14.36,34.678l-.348-.348A.825.825,0,0,0,12.845,35.5Z" transform="translate(-0.677 -1.836)"/>
      <path id="Path_26499" data-name="Path 26499" d="M23.548,33.356h1.139a.828.828,0,0,0,0-1.656H23.548a.828.828,0,0,0,0,1.656Z" transform="translate(-1.273 -1.804)"/>
      <path id="Path_26500" data-name="Path 26500" d="M25.138,36.17h-1.59a.828.828,0,0,0,0,1.656h1.59a.828.828,0,0,0,0-1.656Z" transform="translate(-1.273 -2.067)"/>
      <path id="Path_26501" data-name="Path 26501" d="M19.333,45.18H10.948a.829.829,0,0,0-.828.828v8.384a.829.829,0,0,0,.828.828h8.384a.829.829,0,0,0,.828-.828V46.008A.823.823,0,0,0,19.333,45.18Zm-.819,8.375H11.776V46.817h6.738Z" transform="translate(-0.53 -2.599)"/>
      <path id="Path_26502" data-name="Path 26502" d="M34.473,47.63H23.548a.828.828,0,0,0,0,1.656H34.473a.828.828,0,1,0,0-1.656Z" transform="translate(-1.273 -2.743)"/>
      <path id="Path_26503" data-name="Path 26503" d="M23.548,52.08a.828.828,0,0,0,0,1.656H34.511a.828.828,0,0,0,0-1.656Z" transform="translate(-1.273 -3.006)"/>
      <path id="Path_26504" data-name="Path 26504" d="M13.345,52.337a.818.818,0,0,0,1.167,0l.809-.809.809.809a.836.836,0,0,0,.583.245.8.8,0,0,0,.583-.245.829.829,0,0,0,0-1.167l-.809-.809.809-.809a.825.825,0,1,0-1.167-1.167l-.809.809-.809-.809a.825.825,0,1,0-1.167,1.167l.809.809-.809.809a.829.829,0,0,0,0,1.167Z" transform="translate(-0.706 -2.774)"/>
    </g>
  </g>
</svg>
