<svg xmlns="http://www.w3.org/2000/svg" width="43.67" height="40" viewBox="0 0 43.67 40">
  <g id="Group_50095" data-name="Group 50095" transform="translate(-530 -2561)">
    <g id="Group_50093" data-name="Group 50093" transform="translate(-4.375 41.75)">
      <g id="noun-" transform="translate(552.932 2524.25)">
        <path id="Path_26519" data-name="Path 26519" d="M26.1,20.932A12.94,12.94,0,0,1,34.488,33.15a.981.981,0,0,1-.966,1H10.341a.981.981,0,0,1-.966-1,12.94,12.94,0,0,1,8.388-12.218A8.029,8.029,0,0,1,14.2,14.22a7.854,7.854,0,0,1,7.727-7.97,7.854,7.854,0,0,1,7.727,7.97A8.029,8.029,0,0,1,26.1,20.932Zm-4.169,1.259a10.767,10.767,0,0,0-10.582,9.963H32.514a10.767,10.767,0,0,0-10.582-9.963Zm0-1.993a5.89,5.89,0,0,0,5.8-5.978,5.8,5.8,0,1,0-11.591,0A5.89,5.89,0,0,0,21.932,20.2Z" transform="translate(-9.375 -6.25)" fill="#1e2c53" fill-rule="evenodd"/>
      </g>
      <path id="Path_26522" data-name="Path 26522" d="M554.567,2551.217s1.663-10.878,6.918-9.611,0,5.3,0,5.3,20.056-.721,15,1.33S554.567,2551.217,554.567,2551.217Z" transform="translate(-4.673 -0.342)" fill="#fff"/>
      <g id="noun--2" data-name="noun-" transform="translate(539.375 2524.25)">
        <path id="Path_26519-2" data-name="Path 26519" d="M26.1,20.932A12.94,12.94,0,0,1,34.488,33.15a.981.981,0,0,1-.966,1H10.341a.981.981,0,0,1-.966-1,12.94,12.94,0,0,1,8.388-12.218A8.029,8.029,0,0,1,14.2,14.22a7.854,7.854,0,0,1,7.727-7.97,7.854,7.854,0,0,1,7.727,7.97A8.029,8.029,0,0,1,26.1,20.932Zm-4.169,1.259a10.767,10.767,0,0,0-10.582,9.963H32.514a10.767,10.767,0,0,0-10.582-9.963Zm0-1.993a5.89,5.89,0,0,0,5.8-5.978,5.8,5.8,0,1,0-11.591,0A5.89,5.89,0,0,0,21.932,20.2Z" transform="translate(-9.375 -6.25)" fill="#1e2c53" fill-rule="evenodd"/>
      </g>
    </g>
    <rect id="Rectangle_3948" data-name="Rectangle 3948" width="40" height="40" transform="translate(530 2561)" fill="none"/>
  </g>
</svg>
