<svg xmlns="http://www.w3.org/2000/svg" width="40" height="40" viewBox="0 0 40 40">
  <g id="Group_50094" data-name="Group 50094" transform="translate(-530 -2561)">
    <g id="Group_50093" data-name="Group 50093" transform="translate(-4.375 41.75)">
      <g id="noun-" transform="translate(539.375 2524.25)">
        <path id="Path_26519" data-name="Path 26519" d="M26.1,20.932A12.94,12.94,0,0,1,34.488,33.15a.981.981,0,0,1-.966,1H10.341a.981.981,0,0,1-.966-1,12.94,12.94,0,0,1,8.388-12.218A8.029,8.029,0,0,1,14.2,14.22a7.854,7.854,0,0,1,7.727-7.97,7.854,7.854,0,0,1,7.727,7.97A8.029,8.029,0,0,1,26.1,20.932Zm-4.169,1.259a10.767,10.767,0,0,0-10.582,9.963H32.514a10.767,10.767,0,0,0-10.582-9.963Zm0-1.993a5.89,5.89,0,0,0,5.8-5.978,5.8,5.8,0,1,0-11.591,0A5.89,5.89,0,0,0,21.932,20.2Z" transform="translate(-9.375 -6.25)" fill="#1e2c53" fill-rule="evenodd"/>
      </g>
      <g id="noun-settings" transform="translate(555.607 2540.479)">
        <circle id="Ellipse_266" data-name="Ellipse 266" cx="5.974" cy="5.974" r="5.974" transform="translate(0.809 0.844)" fill="#fff"/>
        <path id="Path_26520" data-name="Path 26520" d="M7.333,13.791H6.441a.813.813,0,0,1-.689-.381c-.065-.1-.46-.765-.661-1.157l-.713-.293c-.435.138-1.219.333-1.286.35a.815.815,0,0,1-.759-.218L1.7,11.459a.814.814,0,0,1-.218-.759c.028-.118.215-.866.35-1.286L1.539,8.7c-.413-.209-1.1-.627-1.157-.661A.813.813,0,0,1,0,7.353v-.9a.813.813,0,0,1,.381-.689c.1-.065.765-.46,1.157-.661L1.832,4.4c-.138-.435-.333-1.219-.35-1.286A.815.815,0,0,1,1.7,2.352l.632-.632A.814.814,0,0,1,3.091,1.5c.118.028.866.215,1.286.35l.711-.293C5.3,1.145,5.715.457,5.749.4A.813.813,0,0,1,6.438.02h.893A.813.813,0,0,1,8.019.4c.065.1.46.765.661,1.157l.711.293c.435-.138,1.219-.333,1.286-.35a.815.815,0,0,1,.759.218l.632.632a.814.814,0,0,1,.218.759c-.028.118-.215.866-.35,1.286l.293.711c.413.209,1.1.627,1.157.661a.813.813,0,0,1,.382.689v.893a.813.813,0,0,1-.381.689c-.1.065-.765.46-1.157.661l-.288.713c.138.435.333,1.219.35,1.286a.815.815,0,0,1-.218.759l-.632.632a.815.815,0,0,1-.759.218c-.118-.028-.866-.215-1.286-.35l-.711.293c-.209.413-.627,1.1-.661,1.157a.813.813,0,0,1-.691.382ZM4.4,11.141l1.249.519.062.138c.127.275.584,1.05.689,1.208a.052.052,0,0,0,.045.025h.893a.052.052,0,0,0,.045-.025c.081-.129.551-.915.689-1.208l.062-.138,1.253-.519.138.051c.285.1,1.154.328,1.337.372a.047.047,0,0,0,.048-.014l.632-.632a.048.048,0,0,0,.014-.048c-.034-.147-.258-1.036-.372-1.337l-.051-.138.517-1.251.138-.062c.275-.127,1.05-.584,1.208-.689a.052.052,0,0,0,.025-.045V6.455a.052.052,0,0,0-.025-.045h0c-.129-.081-.915-.551-1.208-.689l-.138-.062-.519-1.253.051-.138c.1-.285.328-1.154.372-1.337a.052.052,0,0,0-.014-.048l-.632-.632a.048.048,0,0,0-.048-.014c-.147.034-1.033.258-1.337.372l-.138.051L8.127,2.143,8.065,2C7.938,1.729,7.481.955,7.376.8A.052.052,0,0,0,7.331.772H6.443A.052.052,0,0,0,6.4.8C6.317.926,5.847,1.711,5.709,2l-.062.138-1.253.519-.138-.051c-.285-.1-1.154-.328-1.337-.372a.047.047,0,0,0-.048.014l-.632.632a.048.048,0,0,0-.014.048c.034.147.258,1.036.372,1.337l.051.138L2.131,5.665l-.138.062c-.275.127-1.05.584-1.208.689a.052.052,0,0,0-.025.045v.893A.052.052,0,0,0,.785,7.4c.129.081.915.551,1.208.689l.138.062L2.65,9.4,2.6,9.541c-.1.285-.328,1.154-.372,1.337a.052.052,0,0,0,.014.048l.632.632a.048.048,0,0,0,.048.014c.147-.034,1.033-.258,1.337-.372Zm2.489-1.019A3.218,3.218,0,1,1,10.1,6.9a3.218,3.218,0,0,1-3.218,3.218Zm0-5.674A2.456,2.456,0,1,0,9.343,6.9,2.456,2.456,0,0,0,6.887,4.448Z" transform="translate(0 -0.02)" fill="#1e2c53"/>
      </g>
    </g>
    <rect id="Rectangle_3948" data-name="Rectangle 3948" width="40" height="40" transform="translate(530 2561)" fill="none"/>
  </g>
</svg>
