<svg xmlns="http://www.w3.org/2000/svg" width="100" height="60" viewBox="0 0 100 60">
  <g id="Group_50005" data-name="Group 50005" transform="translate(-410 -894)">
    <rect id="Rectangle_3904" data-name="Rectangle 3904" width="100" height="60" transform="translate(410 894)" fill="none"/>
    <g id="Layer_2" data-name="Layer 2" transform="translate(430 893)">
      <path id="Path_26510" data-name="Path 26510" d="M57.052,43.381H54.207V15.762A4.752,4.752,0,0,0,49.466,11H11.534a4.752,4.752,0,0,0-4.741,4.762V43.381H3.948A.95.95,0,0,0,3,44.333v3.81A2.851,2.851,0,0,0,5.845,51h49.31A2.851,2.851,0,0,0,58,48.143v-3.81A.95.95,0,0,0,57.052,43.381ZM8.69,15.762A2.851,2.851,0,0,1,11.534,12.9H49.466a2.851,2.851,0,0,1,2.845,2.857V43.381H38.086v-3.81A8.553,8.553,0,0,0,29.552,31H21.966a8.553,8.553,0,0,0-8.534,8.571v3.81H8.69ZM23.862,43.381H15.328v-3.81A6.652,6.652,0,0,1,21.966,32.9h7.586a6.652,6.652,0,0,1,6.638,6.667v5.714H24.81v-.952A.95.95,0,0,0,23.862,43.381ZM56.1,48.143a.95.95,0,0,1-.948.952H5.845a.95.95,0,0,1-.948-.952V45.286H22.914v.952a.95.95,0,0,0,.948.952H37.138a.95.95,0,0,0,.948-.952v-.952H56.1Z" transform="translate(0 0)"/>
      <path id="Path_26511" data-name="Path 26511" d="M26.743,29.486A6.743,6.743,0,1,0,20,22.743,6.743,6.743,0,0,0,26.743,29.486Zm0-11.56a4.816,4.816,0,1,1-4.816,4.816A4.816,4.816,0,0,1,26.743,17.927Z" transform="translate(-0.961 -0.184)"/>
      <path id="Path_26512" data-name="Path 26512" d="M38,20H49.56v1.927H38Z" transform="translate(-1.948 -0.433)"/>
      <path id="Path_26513" data-name="Path 26513" d="M38,28H49.56v1.927H38Z" transform="translate(-1.948 -0.819)"/>
      <path id="Path_26514" data-name="Path 26514" d="M38,24h7.706v1.927H38Z" transform="translate(-1.894 -0.626)"/>
    </g>
  </g>
</svg>
